HIERARCHY
ROOT hip
{
  OFFSET 0 0 0
  CHANNELS 6 Xposition Yposition Zposition Zrotation Yrotation Xrotation
  JOINT abdomen
  {
    OFFSET 0 20.6881 -0.73152
    CHANNELS 3 Zrotation Xrotation Yrotation
    JOINT chest
    {
      OFFSET 0 11.7043 -0.48768
      CHANNELS 3 Zrotation Xrotation Yrotation
      JOINT neck
      {
        OFFSET 0 22.1894 -2.19456
        CHANNELS 3 Zrotation Xrotation Yrotation
        JOINT head
        {
          OFFSET -0.24384 7.07133 1.2192
          CHANNELS 3 Zrotation Xrotation Yrotation
          JOINT leftEye
          {
            OFFSET 4.14528 8.04674 8.04672
            CHANNELS 3 Zrotation Xrotation Yrotation
            End Site
            {
              OFFSET 1 0 0
            }
          }
          JOINT rightEye
          {
            OFFSET -3.6576 8.04674 8.04672
            CHANNELS 3 Zrotation Xrotation Yrotation
            End Site
            {
              OFFSET 1 0 0
            }
          }
        }
      }
      JOINT rCollar
      {
        OFFSET -2.68224 19.2634 -4.8768
        CHANNELS 3 Zrotation Xrotation Yrotation
        JOINT rShldr
        {
          OFFSET -8.77824 -1.95073 1.46304
          CHANNELS 3 Zrotation Xrotation Yrotation
          JOINT rForeArm
          {
            OFFSET -28.1742 -1.7115 0.48768
            CHANNELS 3 Zrotation Xrotation Yrotation
            JOINT rHand
            {
              OFFSET -22.5879 0.773209 7.07136
              CHANNELS 3 Zrotation Xrotation Yrotation
              JOINT rThumb1
              {
                OFFSET -1.2192 -0.487915 3.41376
                CHANNELS 3 Zrotation Xrotation Yrotation
                JOINT rThumb2
                {
                  OFFSET -3.37035 -0.52449 3.41376
                  CHANNELS 3 Zrotation Xrotation Yrotation
                  End Site
                  {
                    OFFSET -1.78271 -1.18214 1.43049
                  }
                }
              }
              JOINT rIndex1
              {
                OFFSET -7.75947 0.938293 5.60832
                CHANNELS 3 Zrotation Xrotation Yrotation
                JOINT rIndex2
                {
                  OFFSET -2.54057 -0.884171 1.56538
                  CHANNELS 3 Zrotation Xrotation Yrotation
                  End Site
                  {
                    OFFSET -1.62519 -0.234802 1.16502
                  }
                }
              }
              JOINT rMid1
              {
                OFFSET -8.24714 1.18213 3.41376
                CHANNELS 3 Zrotation Xrotation Yrotation
                JOINT rMid2
                {
                  OFFSET -3.10165 -0.590103 1.0647
                  CHANNELS 3 Zrotation Xrotation Yrotation
                  End Site
                  {
                    OFFSET -2.48547 -0.328903 0.83742
                  }
                }
              }
              JOINT rRing1
              {
                OFFSET -8.82822 0.546677 1.51678
                CHANNELS 3 Zrotation Xrotation Yrotation
                JOINT rRing2
                {
                  OFFSET -2.60934 -0.819778 -0.0198488
                  CHANNELS 3 Zrotation Xrotation Yrotation
                  End Site
                  {
                    OFFSET -2.33842 -0.294052 0.168128
                  }
                }
              }
              JOINT rPinky1
              {
                OFFSET -8.27202 -0.0477905 -0.4584
                CHANNELS 3 Zrotation Xrotation Yrotation
                JOINT rPinky2
                {
                  OFFSET -1.82734 -0.647385 -0.700984
                  CHANNELS 3 Zrotation Xrotation Yrotation
                  End Site
                  {
                    OFFSET -1.69225 -0.51767 -0.607171
                  }
                }
              }
            }
          }
        }
      }
      JOINT lCollar
      {
        OFFSET 2.68224 19.2634 -4.8768
        CHANNELS 3 Zrotation Xrotation Yrotation
        JOINT lShldr
        {
          OFFSET 8.77824 -1.95073 1.46304
          CHANNELS 3 Zrotation Xrotation Yrotation
          JOINT lForeArm
          {
            OFFSET 28.1742 -1.7115 0.48768
            CHANNELS 3 Zrotation Xrotation Yrotation
            JOINT lHand
            {
              OFFSET 22.5879 0.773209 7.07136
              CHANNELS 3 Zrotation Xrotation Yrotation
              JOINT lThumb1
              {
                OFFSET 1.2192 -0.487915 3.41376
                CHANNELS 3 Zrotation Xrotation Yrotation
                JOINT lThumb2
                {
                  OFFSET 3.37035 -0.52449 3.41376
                  CHANNELS 3 Zrotation Xrotation Yrotation
                  End Site
                  {
                    OFFSET 1.78271 -1.18214 1.43049
                  }
                }
              }
              JOINT lIndex1
              {
                OFFSET 7.75947 0.938293 5.60832
                CHANNELS 3 Zrotation Xrotation Yrotation
                JOINT lIndex2
                {
                  OFFSET 2.54057 -0.884171 1.56538
                  CHANNELS 3 Zrotation Xrotation Yrotation
                  End Site
                  {
                    OFFSET 1.62519 -0.234802 1.16502
                  }
                }
              }
              JOINT lMid1
              {
                OFFSET 8.24714 1.18213 3.41376
                CHANNELS 3 Zrotation Xrotation Yrotation
                JOINT lMid2
                {
                  OFFSET 3.10165 -0.590103 1.0647
                  CHANNELS 3 Zrotation Xrotation Yrotation
                  End Site
                  {
                    OFFSET 2.48547 -0.328903 0.83742
                  }
                }
              }
              JOINT lRing1
              {
                OFFSET 8.82822 0.546677 1.51678
                CHANNELS 3 Zrotation Xrotation Yrotation
                JOINT lRing2
                {
                  OFFSET 2.60934 -0.819778 -0.0198488
                  CHANNELS 3 Zrotation Xrotation Yrotation
                  End Site
                  {
                    OFFSET 2.33842 -0.294052 0.168128
                  }
                }
              }
              JOINT lPinky1
              {
                OFFSET 8.27202 -0.0477905 -0.4584
                CHANNELS 3 Zrotation Xrotation Yrotation
                JOINT lPinky2
                {
                  OFFSET 1.82734 -0.647385 -0.700984
                  CHANNELS 3 Zrotation Xrotation Yrotation
                  End Site
                  {
                    OFFSET 1.69225 -0.51767 -0.607171
                  }
                }
              }
            }
          }
        }
      }
    }
  }
  JOINT rButtock
  {
    OFFSET -8.77824 4.35084 1.2192
    CHANNELS 3 Zrotation Xrotation Yrotation
    JOINT rThigh
    {
      OFFSET 0 -1.70687 -2.19456
      CHANNELS 3 Zrotation Xrotation Yrotation
      JOINT rShin
      {
        OFFSET 0 -36.8199 0.73152
        CHANNELS 3 Zrotation Xrotation Yrotation
        JOINT rFoot
        {
          OFFSET 0.73152 -45.1104 -5.12064
          CHANNELS 3 Zrotation Xrotation Yrotation
          End Site
          {
            OFFSET -1.1221 -3.69964 12.103
          }
        }
      }
    }
  }
  JOINT lButtock
  {
    OFFSET 8.77824 4.35084 1.2192
    CHANNELS 3 Zrotation Xrotation Yrotation
    JOINT lThigh
    {
      OFFSET 0 -1.70687 -2.19456
      CHANNELS 3 Zrotation Xrotation Yrotation
      JOINT lShin
      {
        OFFSET 0 -36.8199 0.73152
        CHANNELS 3 Zrotation Xrotation Yrotation
        JOINT lFoot
        {
          OFFSET -0.73152 -45.1104 -5.12064
          CHANNELS 3 Zrotation Xrotation Yrotation
          End Site
          {
            OFFSET 1.1221 -3.69964 12.103
          }
        }
      }
    }
  }
}
MOTION
Frames:	4
Frame Time:	0.03333
0.0 0.0 0.0 0.0 0.0 0.0 0.0 0.0 0.0 0.0 0.0 0.0 0.0 0.0 0.0 0.0 0.0 0.0 0.0 0.0 0.0 0.0 0.0 0.0 0.0 0.0 0.0 0.0 0.0 0.0 0.0 0.0 0.0 0.0 0.0 0.0 0.0 0.0 0.0 0.0 0.0 0.0 0.0 0.0 0.0 0.0 0.0 0.0 0.0 0.0 0.0 0.0 0.0 0.0 0.0 0.0 0.0 0.0 0.0 0.0 0.0 0.0 0.0 0.0 0.0 0.0 0.0 0.0 0.0 0.0 0.0 0.0 0.0 0.0 0.0 0.0 0.0 0.0 0.0 0.0 0.0 0.0 0.0 0.0 0.0 0.0 0.0 0.0 0.0 0.0 0.0 0.0 0.0 0.0 0.0 0.0 0.0 0.0 0.0 0.0 0.0 0.0 0.0 0.0 0.0 0.0 0.0 0.0 0.0 0.0 0.0 0.0 0.0 0.0 0.0 0.0 0.0 0.0 0.0 0.0 0.0 0.0 0.0 0.0 0.0 0.0 0.0 0.0 0.0 0.0 0.0 0.0
0.6813 69.3025 1.0792 5.557837 46.757457 4.949693 12.156188 -4.643048 -110.595689 6.00903 -0.043096 131.101221 -9.808734 8.663169 -79.886402 4.304203 -0.065294 72.693095 0.002351 0.0 0.002499 0.002351 0.0 0.002499 -3.767588 17.921106 4.640551 2.07745 25.42373 71.208894 11.794243 -8.786639 104.192533 -11.961204 20.141739 0.331777 -173.97656 -11.643285 89.88196 -38.753738 -23.274064 4.296878 -50.386023 40.827156 40.024054 4.000701 3.944704 -2.153221 -10.974505 25.79012 7.64005 80.589084 -77.977654 52.035217 -0.059132 -3.42974 -1.080064 -156.046084 -46.653534 177.628779 15.71551 54.936403 12.235343 -148.389059 12.066781 -143.285783 -4.209559 -43.443168 8.382581 101.498224 55.128632 -93.291651 -138.819743 0.150758 -161.763245 135.803567 65.638393 -112.7601 2.813702 2.75431 -0.498014 133.313191 -33.531349 -115.704764 90.225806 41.07292 -75.796716 3.852279 15.709968 1.661141 160.097537 -4.901334 -142.968663 163.771655 -6.247946 -143.110924 -0.001813 0.063957 -0.019255 156.488541 -25.092641 -174.787763 125.485555 -28.274704 123.237878 8.762332 -23.545484 11.817415 179.905677 75.750329 0.0727 148.329383 40.938668 -28.847785 -59.82339 43.776214 -5.662081 -31.152882 -53.178328 44.774902 0.002984 -0.000702 0.002984 -2.872931 -30.916962 -180.0 22.835907 -55.303495 -49.697363 -25.707056 20.721247 -85.345392
0.8262999999999999 69.6473 0.893 5.218204 49.678911 4.540159 13.318666 -4.318791 -92.723321 6.103875 -2.435075 112.76277 -1.877007 -0.97405 -3.969971 -8.033793 4.925402 -2.490118 0.001853 0.0 0.001075 0.000996 -0.0 -0.003839 3.928109 -36.415252 -7.020997 -104.751703 -7.949457 169.646269 35.148095 60.843581 -165.850529 -176.602638 6.302037 142.654712 -0.440537 0.435652 0.070442 10.719294 -15.224413 -8.015363 -90.224859 41.071419 75.796753 83.289847 -65.190875 36.583663 6.533503 -20.414868 -2.717879 -42.140175 58.541783 36.100996 -73.626488 72.972141 91.554209 4.993738 29.770484 -0.453738 -124.85081 -29.039015 -122.622328 1.959665 -2.849751 -2.548631 142.974008 39.431841 -147.390531 141.197868 -22.886631 164.704098 92.596677 49.481916 -68.132884 -82.344722 -73.663683 -65.769776 -4.53059 -4.514224 0.520746 105.674014 11.360063 -95.905746 148.887294 -12.609695 -120.244219 -179.475023 -46.71935 -113.641865 89.835722 60.703226 -81.262906 -9.059367 -17.142752 1.259593 145.10067 -1.521989 178.651952 157.19495 45.538937 -175.523949 23.389488 -36.350044 22.492655 -63.198074 85.465435 24.298087 -0.001339 -0.001864 -0.002008 -26.276128 -27.578156 133.158732 29.950366 -59.010671 -21.444191 -101.913221 -15.496599 -166.673588 179.99908 75.75049 -0.0 176.556667 45.522456 -170.57758 31.30321 -50.616918 105.410654 60.872132 -36.682098 139.963726
0.72 69.4615 0.5718 5.852191 53.013021 5.069223 8.168046 -3.363077 67.769775 -5.402481 -4.958175 -48.883157 -9.204319 7.763193 -72.91712 2.20795 -1.921123 66.248597 0.000512 -0.0 -0.001507 0.001329 0.0 0.003557 -157.641582 -66.710473 175.899191 21.036711 -7.75401 -48.691466 87.052212 -33.670517 -91.247861 -149.772149 54.428389 124.562766 -171.653858 -9.336225 89.948704 59.62481 -68.402862 45.922903 -14.22986 19.202792 9.56056 -153.56322 1.259944 109.323494 -10.974594 25.790019 7.640509 -34.313451 55.161319 29.01302 -145.118873 0.184948 -179.187508 -152.96058 -21.494966 -176.015207 -145.398227 12.778648 -142.02171 -155.466382 36.350728 -145.921284 -3.542185 -62.053051 13.039042 177.018686 -5.673775 -144.061963 -0.233423 15.578956 57.550536 -171.668508 -22.066625 -142.869892 173.976072 -11.643484 -89.881983 142.178131 9.480381 -72.941309 -159.639556 -69.972942 -102.394132 2.962368 29.47687 -1.456951 145.288858 29.525069 -132.693749 34.642852 54.959803 -29.447933 0.000824 -0.060932 0.01854 -10.319694 0.212754 0.040366 150.576406 31.033438 146.365456 147.921229 11.733664 141.763406 179.992895 75.749865 0.004861 147.857398 40.257222 -180.0 35.656691 -65.004213 67.846826 -22.206629 63.210258 144.1564 0.001701 -0.001287 0.000425 -4.047204 -30.094433 -180.0 15.493216 -50.421983 -110.577553 63.788148 -52.252243 -20.991992
